<svg width="178" height="92" viewBox="0 0 178 92" fill="none" xmlns="http://www.w3.org/2000/svg">
<path d="M164.557 17.0947C166.699 17.0947 168.797 17.408 170.848 18.0314C172.899 18.658 174.418 19.272 175.405 19.8796L176.848 20.8416L173.202 28.0442C172.914 27.8512 172.512 27.6012 172 27.2974C171.484 26.9936 170.522 26.5885 169.114 26.0822C167.712 25.5695 166.398 25.31 165.177 25.31C163.674 25.31 162.512 25.6328 161.696 26.2721C160.886 26.9145 160.481 27.7784 160.481 28.867C160.481 29.4082 160.671 29.9113 161.05 30.3734C161.436 30.8386 162.095 31.3354 163.025 31.8671C163.952 32.3924 164.766 32.8133 165.468 33.1329C166.177 33.4557 167.266 33.9367 168.734 34.576C171.297 35.6646 173.484 37.1456 175.291 39.019C177.095 40.8925 178 43.0159 178 45.3862C178 47.6584 177.589 49.6394 176.772 51.3356C175.962 53.0319 174.842 54.361 173.418 55.323C171.99 56.2851 170.411 57.0003 168.683 57.4623C166.952 57.9243 165.079 58.1585 163.063 58.1585C161.341 58.1585 159.645 57.9813 157.974 57.6269C156.31 57.2724 154.917 56.8357 153.797 56.3104C152.674 55.7787 151.664 55.2597 150.772 54.7534C149.876 54.2407 149.221 53.804 148.81 53.4496L148.177 52.9179L152.696 45.3356C153.076 45.6584 153.601 46.0666 154.278 46.5634C154.952 47.054 156.145 47.7154 157.86 48.5508C159.572 49.3863 161.082 49.804 162.392 49.804C166.205 49.804 168.114 48.5065 168.114 45.9052C168.114 45.3672 167.974 44.8641 167.696 44.3989C167.424 43.9368 166.943 43.4716 166.253 43.0064C165.569 42.5444 164.962 42.1773 164.43 41.9052C163.905 41.6267 163.041 41.2089 161.835 40.652C160.636 40.095 159.75 39.671 159.177 39.3735C156.778 38.1931 154.924 36.7152 153.607 34.943C152.291 33.1645 151.632 31.2468 151.632 29.1961C151.632 25.6455 152.943 22.7404 155.569 20.4872C158.202 18.2277 161.196 17.0947 164.557 17.0947Z" fill="white"/>
<path d="M78.2243 35.2468V43.8419C77.2021 48.5508 74.9616 52.1173 71.5027 54.5382C68.0406 56.9528 64.1798 58.1585 59.9202 58.1585C54.5784 58.1585 50.0246 56.1585 46.2618 52.1584C42.496 48.1521 40.6162 43.3166 40.6162 37.6519C40.6162 31.8892 42.4548 27.0252 46.1353 23.0568C49.822 19.0821 54.417 17.0947 59.9202 17.0947C66.357 17.0947 71.452 19.3542 75.1989 23.867L69.2874 30.3481C67.1767 26.9556 64.2304 25.2594 60.4519 25.2594C57.6671 25.2594 55.2873 26.4714 53.3126 28.8923C51.3442 31.3069 50.3632 34.2278 50.3632 37.6519C50.3632 41.0127 51.3442 43.8862 53.3126 46.2723C55.2873 48.6616 57.6671 49.8546 60.4519 49.8546C62.7557 49.8546 64.7621 49.1584 66.4773 47.766C68.1893 46.3672 69.0469 44.5128 69.0469 42.209H59.9202V35.2468H78.2243Z" fill="white"/>
<path d="M24.3421 17.8164L40.3423 57.4371H30.6333L27.7092 49.513H12.6331L9.69632 57.4371H0L15.9875 17.8164H24.3421ZM24.6332 41.5888L20.2154 30.0571H20.1142L15.6964 41.5888H24.6332Z" fill="white"/>
<path d="M84.0839 47.8545C84.3497 52.1014 86.8877 55.5191 90.7801 57.2059C96.8467 59.823 102.581 59.5603 108.913 59.592C110.192 59.6046 106.973 61.3167 105.815 61.8293C102.973 63.0825 99.5935 64.2186 96.4764 64.3927C88.4257 64.8136 80.7958 55.6267 84.0839 47.8545Z" fill="white"/>
<path d="M62.9283 91.8521C58.9884 63.0131 89.5647 71.7411 104.483 69.0733C113.359 67.4879 121.755 62.4878 127.679 55.7345C142.926 38.2945 135.36 1.70542 108.536 9.61374C95.6755 13.4018 82.9507 31.2406 95.3464 42.323C103.024 49.1933 114.264 47.1458 118.622 37.8103C120.268 34.3007 118.707 29.0032 114.157 29.2089C112.233 29.3038 109.283 30.1583 108.141 31.8672C107.343 33.0412 107.125 37.1014 106.559 35.8134C106.147 34.883 105.856 33.921 105.935 32.8862C106.853 19.905 127.84 24.4114 125.992 38.6711C123.923 54.608 97.6249 61.8391 87.8368 48.6237C65.6815 18.7246 119.973 -19.2315 141.262 11.2277C158.009 35.1932 140.106 71.3898 112.204 77.6114C91.6122 82.1906 77.5836 69.5322 62.9283 91.8521Z" fill="white"/>
<path d="M126.869 21.1451C118.119 9.31896 93.5866 14.8348 93.5645 30.7591C93.5645 38.9934 106.862 47.7213 112.963 39.9079C114.204 38.313 114.989 35.6959 114.118 33.7212C113.723 32.8287 113.299 35.5092 112.704 36.2845C111.118 38.4079 108.248 39.5408 105.656 39.4839C100.59 39.3858 98.1531 33.8731 100.036 29.4363C104.739 18.3001 117.492 19.8792 126.869 21.1451Z" fill="white"/>
</svg>
