<svg width="56" height="60" viewBox="0 0 56 60" fill="none" xmlns="http://www.w3.org/2000/svg">
<path d="M14.0285 31.2212C14.2019 33.9919 15.8577 36.2218 18.3973 37.3222C22.3552 39.0297 26.0963 38.8583 30.2277 38.879C31.0618 38.8872 28.962 40.0042 28.2064 40.3387C26.3523 41.1563 24.1473 41.8975 22.1136 42.011C16.8612 42.2856 11.8833 36.292 14.0285 31.2212Z" fill="white"/>
<path d="M0.226558 59.926C-2.34392 41.111 17.6047 46.8052 27.3374 45.0648C33.1287 44.0304 38.6062 40.7682 42.4712 36.3623C52.4187 24.984 47.4821 1.11265 29.9822 6.27219C21.5915 8.74356 13.2896 20.382 21.3768 27.6123C26.3856 32.0947 33.7192 30.7588 36.5622 24.6681C37.6358 22.3785 36.6179 18.9222 33.649 19.0565C32.3937 19.1184 30.4694 19.6758 29.7241 20.7908C29.2038 21.5567 29.0614 24.2057 28.6918 23.3654C28.4234 22.7584 28.2334 22.1307 28.285 21.4556C28.8838 12.9864 42.5765 15.9265 41.3708 25.2297C40.0205 35.6273 22.8633 40.345 16.4774 31.723C2.0228 12.2163 37.4438 -12.547 51.3326 7.32515C62.2587 22.9607 50.5791 46.5761 32.3751 50.6352C18.9405 53.6227 9.78792 45.3641 0.226558 59.926Z" fill="white"/>
<path d="M41.9431 13.7957C36.2344 6.08013 20.2293 9.6788 20.2148 20.0681C20.2148 25.4403 28.8905 31.1346 32.8711 26.037C33.6804 24.9964 34.1925 23.2889 33.6247 22.0006C33.3666 21.4184 33.09 23.1671 32.7018 23.6729C31.6674 25.0583 29.7948 25.7975 28.1038 25.7603C24.7984 25.6963 23.2086 22.0997 24.437 19.2051C27.5051 11.9396 35.8256 12.9698 41.9431 13.7957Z" fill="white"/>
</svg>
