<svg width="20" height="20" viewBox="0 0 20 20" fill="none" xmlns="http://www.w3.org/2000/svg">
<rect width="20" height="20" fill="white"/>
<path fill-rule="evenodd" clip-rule="evenodd" d="M4.58168 6.32979C4.23071 3.52202 6.42003 1.04199 9.24966 1.04199H10.6688C13.5014 1.04199 15.693 3.52464 15.3417 6.33539L15.2878 6.76617C15.1836 7.5996 15.4867 8.43227 16.1021 9.00383L16.1387 9.0378C17.4831 10.2863 17.744 12.3169 16.7589 13.8648C16.1151 14.8764 15.0356 15.5199 13.8517 15.6135L13.6924 15.8867C12.8484 17.3335 11.5334 18.1253 10.1525 18.1253C8.77164 18.1253 7.45664 17.3335 6.61264 15.8867L6.45575 15.6177C5.04632 15.53 3.78377 14.6905 3.16198 13.4087L3.07586 13.2311C2.37031 11.7766 2.70039 10.0316 3.88846 8.93528C4.4618 8.40621 4.74458 7.63296 4.64781 6.85883L4.58168 6.32979ZM7.93312 15.6253C8.5659 16.4901 9.38489 16.8753 10.1525 16.8753C10.9201 16.8753 11.7391 16.4901 12.3719 15.6253H7.93312Z" fill="#5DCCFC"/>
</svg>
