<svg preserveAspectRatio="none" width="100%" height="100%" overflow="visible" style="display: block;" viewBox="0 0 640.246 267" fill="none" xmlns="http://www.w3.org/2000/svg">
<g id="Group 94">
<path id="Vector 1" opacity="0.4" d="M309.5 35.6945C238.341 61.8051 176.184 -21.2352 116.598 5.30347C81.0187 13.8643 9.17355 31.9277 6.43006 35.6945C3.68656 39.4613 1.00023 122.873 0 164.107L528.551 251C564.559 206.626 626.373 105.209 585.564 54.5284C534.552 -8.82195 380.659 9.5839 309.5 35.6945Z" fill="white" fill-opacity="0.41"/>
<path id="Vector 2" opacity="0.4" d="M375.069 50.4241C316.549 75.8111 222.228 35.6169 175.536 64.6542C146.844 75.8084 124.419 80.0401 122.552 83.5373C120.686 87.0344 127.732 158.131 131.489 193.242L581.547 209.251C606.61 167.65 646.825 74.8091 607.181 36.2485C557.627 -11.9524 434.202 24.7711 375.069 50.4241Z" fill="white" fill-opacity="0.41"/>
</g>
</svg>
